<svg width="21" height="20" viewBox="0 0 21 20" fill="none" xmlns="http://www.w3.org/2000/svg">
<circle cx="10.4998" cy="10.0001" r="8.33333" fill="#165556"/>
<path d="M11.3335 6.66659C11.3335 6.20635 10.9604 5.83325 10.5002 5.83325C10.0399 5.83325 9.66683 6.20635 9.66683 6.66659L9.66683 9.16659H7.16683C6.70659 9.16659 6.3335 9.53968 6.3335 9.99992C6.3335 10.4602 6.70659 10.8333 7.16683 10.8333H9.66683V13.3333C9.66683 13.7935 10.0399 14.1666 10.5002 14.1666C10.9604 14.1666 11.3335 13.7935 11.3335 13.3333L11.3335 10.8333H13.8335C14.2937 10.8333 14.6668 10.4602 14.6668 9.99992C14.6668 9.53968 14.2937 9.16659 13.8335 9.16659H11.3335V6.66659Z" fill="#AFBFBF"/>
</svg>
