<svg width="25" height="24" viewBox="0 0 25 24" fill="none" xmlns="http://www.w3.org/2000/svg">
<rect x="2.5" y="4" width="20" height="18" rx="3" fill="#165556"/>
<path d="M2.5 7C2.5 5.34315 3.84315 4 5.5 4H19.5C21.1569 4 22.5 5.34315 22.5 7V10H2.5V7Z" fill="#CC92A0"/>
<path fill-rule="evenodd" clip-rule="evenodd" d="M7.5 2C8.05228 2 8.5 2.44772 8.5 3V5C8.5 5.55228 8.05228 6 7.5 6C6.94772 6 6.5 5.55228 6.5 5V3C6.5 2.44772 6.94772 2 7.5 2Z" fill="#165556"/>
<path fill-rule="evenodd" clip-rule="evenodd" d="M17.5 2C18.0523 2 18.5 2.44772 18.5 3V5C18.5 5.55228 18.0523 6 17.5 6C16.9477 6 16.5 5.55228 16.5 5V3C16.5 2.44772 16.9477 2 17.5 2Z" fill="#165556"/>
</svg>
