<svg width="24" height="24" viewBox="0 0 24 24" fill="none" xmlns="http://www.w3.org/2000/svg">
<path d="M18.2722 8.94348C19.3748 10.319 20.0344 12.0651 20.0344 13.9652C20.0344 18.4027 16.4371 22 11.9996 22C7.56214 22 3.96484 18.4027 3.96484 13.9652C3.96484 12.0651 4.62442 10.319 5.7271 8.94348L5.73361 8.93538C5.73361 8.93538 8.52246 5.20153 10.6788 2.56137C11.3685 1.71688 12.631 1.71655 13.3211 2.56071C15.4844 5.20669 18.2768 8.94348 18.2768 8.94348H18.2722Z" fill="#165556"/>
<path fill-rule="evenodd" clip-rule="evenodd" d="M6.90087 14.02C7.44212 13.9101 7.96995 14.2598 8.07982 14.8011C8.39761 16.3666 9.63317 17.6022 11.1987 17.92C11.74 18.0298 12.0897 18.5577 11.9798 19.0989C11.8699 19.6402 11.3421 19.9899 10.8009 19.88C8.44814 19.4024 6.59737 17.5517 6.11979 15.1989C6.00992 14.6577 6.35963 14.1299 6.90087 14.02Z" fill="#AFBFBF"/>
</svg>
