<svg width="25" height="24" viewBox="0 0 25 24" fill="none" xmlns="http://www.w3.org/2000/svg">
<path fill-rule="evenodd" clip-rule="evenodd" d="M2.5 11.3361C2.5 10.4857 2.86096 9.67518 3.49311 9.10625L10.4931 2.80625C11.634 1.77943 13.366 1.77943 14.5069 2.80625L21.5069 9.10625C22.139 9.67518 22.5 10.4857 22.5 11.3361V19C22.5 20.6569 21.1569 22 19.5 22H16.5L16.4944 22H8.50558L8.5 22H5.5C3.84315 22 2.5 20.6569 2.5 19V11.3361Z" fill="#165556"/>
<path d="M9.5 16C9.5 14.8954 10.3954 14 11.5 14H13.5C14.6046 14 15.5 14.8954 15.5 16V22H9.5V16Z" fill="#CC92A0"/>
</svg>
