<svg width="25" height="24" viewBox="0 0 25 24" fill="none" xmlns="http://www.w3.org/2000/svg">
<path fill-rule="evenodd" clip-rule="evenodd" d="M9.59438 3.53021C9.41213 4.07694 8.99616 4.50673 8.49264 4.78709C8.41433 4.83069 8.3368 4.87554 8.26008 4.9216C7.76538 5.21857 7.18453 5.36439 6.61925 5.24871L5.41747 5.00278C4.57409 4.8302 3.71489 5.21665 3.28446 5.96218L2.66348 7.03775C2.23305 7.78328 2.32797 8.72059 2.89913 9.36469L3.71415 10.2838C4.09607 10.7145 4.26112 11.2889 4.252 11.8644C4.25057 11.9548 4.25057 12.0452 4.252 12.1355C4.26112 12.7111 4.09606 13.2854 3.71415 13.7161L2.89913 14.6352C2.32797 15.2793 2.23305 16.2167 2.66348 16.9622L3.28446 18.0378C3.71489 18.7833 4.57409 19.1697 5.41747 18.9971L6.61917 18.7512C7.18445 18.6356 7.76531 18.7814 8.26001 19.0784C8.33675 19.1244 8.41431 19.1693 8.49264 19.2129C8.99616 19.4933 9.41213 19.9231 9.59438 20.4698L9.98193 21.6325C10.2542 22.4491 11.0184 23 11.8793 23H13.1213C13.9821 23 14.7464 22.4491 15.0186 21.6325L15.4062 20.4698C15.5884 19.9231 16.0044 19.4933 16.5079 19.2129C16.5862 19.1693 16.6638 19.1244 16.7405 19.0784C17.2352 18.7814 17.8161 18.6356 18.3814 18.7512L19.583 18.9971C20.4264 19.1697 21.2856 18.7833 21.716 18.0378L22.337 16.9622C22.7675 16.2167 22.6725 15.2793 22.1014 14.6352L21.2864 13.7162C20.9045 13.2855 20.7394 12.7111 20.7486 12.1356C20.75 12.0452 20.75 11.9548 20.7486 11.8644C20.7394 11.2888 20.9045 10.7144 21.2864 10.2838L22.1014 9.36469C22.6725 8.72059 22.7675 7.78328 22.337 7.03775L21.716 5.96218C21.2856 5.21666 20.4264 4.8302 19.583 5.00279L18.3813 5.2487C17.816 5.36438 17.2352 5.21857 16.7405 4.92159C16.6638 4.87554 16.5862 4.83069 16.5079 4.78709C16.0044 4.50673 15.5884 4.07694 15.4062 3.53021L15.0186 2.36754C14.7464 1.55086 13.9821 1 13.1213 1H11.8793C11.0184 1 10.2542 1.55086 9.98193 2.36754L9.59438 3.53021ZM15.5002 12C15.5002 13.6569 14.1571 15 12.5002 15C10.8434 15 9.50022 13.6569 9.50022 12C9.50022 10.3431 10.8434 9 12.5002 9C14.1571 9 15.5002 10.3431 15.5002 12Z" fill="#165556"/>
<path fill-rule="evenodd" clip-rule="evenodd" d="M12.5 15C14.1569 15 15.5 13.6569 15.5 12C15.5 10.3431 14.1569 9 12.5 9C10.8431 9 9.5 10.3431 9.5 12C9.5 13.6569 10.8431 15 12.5 15Z" fill="#AFBFBF"/>
</svg>
